<?xml version="1.0" encoding="utf-8"?>
<svg version="1.1" id="Layer_1" xmlns="http://www.w3.org/2000/svg" xmlns:xlink="http://www.w3.org/1999/xlink" x="0px" y="0px"
	 viewBox="0 0 16 16" style="enable-background:new 0 0 16 16;" xml:space="preserve">
<style type="text/css">
	.st0{fill:#FFFFFF;}
</style>
<title>widget-simple</title>
<g id="Style">
	<g transform="translate(-100.000000, -515.000000)">
		<path id="widget-demo" class="st0" d="M102,516c-0.6,0-1,0.4-1,1v12c0,0.6,0.4,1,1,1h12c0.6,0,1-0.4,1-1v-12c0-0.6-0.4-1-1-1H102z
			 M102,515h12c1.1,0,2,0.9,2,2v12c0,1.1-0.9,2-2,2h-12c-1.1,0-2-0.9-2-2v-12C100,515.9,100.9,515,102,515z"/>
	</g>
</g>
<g>
	<path class="st0" d="M5.8,10.8c0.5,0.3,1.2,0.5,1.9,0.5c1.1,0,1.7-0.6,1.7-1.4c0-0.8-0.4-1.2-1.5-1.6C6.5,7.8,5.7,7.2,5.7,6
		c0-1.3,1-2.2,2.6-2.2c0.8,0,1.4,0.2,1.8,0.4L9.8,5.1C9.6,4.9,9,4.7,8.3,4.7c-1.1,0-1.5,0.7-1.5,1.2c0,0.8,0.5,1.1,1.6,1.6
		c1.4,0.5,2.1,1.2,2.1,2.4c0,1.2-0.9,2.3-2.8,2.3c-0.8,0-1.6-0.2-2.1-0.5L5.8,10.8z"/>
</g>
</svg>
